<svg xmlns="http://www.w3.org/2000/svg" width="103" height="123" viewBox="0 0 103 123"><defs><clipPath id="kltna"><path fill="#fff" d="M62.5 0C96.465 0 124 27.535 124 61.5c0 33.966-27.535 61.5-61.5 61.5C28.534 123 1 95.466 1 61.5 1 27.535 28.534 0 62.5 0z"/></clipPath></defs><g><g opacity=".25"><path fill="#16afe0" d="M62.5 0C96.465 0 124 27.535 124 61.5c0 33.966-27.535 61.5-61.5 61.5C28.534 123 1 95.466 1 61.5 1 27.535 28.534 0 62.5 0z"/><path fill="none" stroke="#16afe0" stroke-miterlimit="50" stroke-width="2" d="M62.5 0C96.465 0 124 27.535 124 61.5c0 33.966-27.535 61.5-61.5 61.5C28.534 123 1 95.466 1 61.5 1 27.535 28.534 0 62.5 0z" clip-path="url(&quot;#kltna&quot;)"/></g></g></svg>